<svg xmlns="http://www.w3.org/2000/svg" xmlns:xlink="http://www.w3.org/1999/xlink" width="500" zoomAndPan="magnify" viewBox="0 0 375 374.999991" height="500" preserveAspectRatio="xMidYMid meet" version="1.2"><defs><clipPath id="8aacfe31ca"><path d="M 81 157 L 375 157 L 375 335.625 L 81 335.625 Z M 81 157 "/></clipPath><clipPath id="663b9f8579"><path d="M 98 39.375 L 375 39.375 L 375 160 L 98 160 Z M 98 39.375 "/></clipPath></defs><g id="a4ef6539d0"><path style=" stroke:none;fill-rule:nonzero;fill:#ffffff;fill-opacity:1;" d="M 229.085938 133.140625 C 253.671875 133.140625 274.441406 149.484375 281.144531 171.898438 L 309.542969 171.898438 C 302.28125 134.085938 269.015625 105.511719 229.085938 105.511719 C 183.820312 105.511719 147.128906 142.203125 147.128906 187.472656 C 147.128906 232.71875 183.820312 269.414062 229.085938 269.414062 C 268.457031 269.414062 301.351562 241.625 309.226562 204.601562 L 280.636719 204.601562 C 273.460938 226.210938 253.09375 241.785156 229.085938 241.785156 C 199.078125 241.785156 174.757812 217.460938 174.757812 187.472656 C 174.757812 157.464844 199.078125 133.140625 229.085938 133.140625 Z M 229.085938 133.140625 "/><g clip-rule="nonzero" clip-path="url(#8aacfe31ca)"><path style=" stroke:none;fill-rule:nonzero;fill:#ffffff;fill-opacity:1;" d="M 229.699219 285.5625 C 176.980469 285.5625 134.003906 244.023438 131.679688 191.914062 L 110.769531 191.914062 L 110.769531 157.8125 L 84.644531 157.8125 C 82.683594 167.402344 81.671875 177.324219 81.671875 187.472656 C 81.671875 188.960938 81.6875 190.464844 81.742188 191.933594 L 110.769531 191.933594 L 110.769531 227.140625 L 128.632812 227.140625 L 128.632812 244.988281 L 110.769531 244.988281 L 110.769531 227.140625 L 87.058594 227.140625 C 104.382812 289.605469 161.671875 335.464844 229.699219 335.464844 C 300.792969 335.464844 360.214844 285.285156 374.421875 218.425781 L 322.789062 218.425781 C 309.839844 257.445312 273.058594 285.5625 229.699219 285.5625 Z M 229.699219 285.5625 "/></g><g clip-rule="nonzero" clip-path="url(#663b9f8579)"><path style=" stroke:none;fill-rule:nonzero;fill:#ffffff;fill-opacity:1;" d="M 229.699219 89.363281 C 274.089844 89.363281 311.605469 118.863281 323.714844 159.351562 L 375 159.351562 C 361.875 91.058594 301.808594 39.460938 229.699219 39.460938 C 172.867188 39.460938 123.523438 71.480469 98.730469 118.445312 L 110.769531 118.445312 L 110.769531 157.8125 L 136.140625 157.8125 C 148.703125 118.109375 185.832031 89.363281 229.699219 89.363281 Z M 132.992188 91.636719 L 151.136719 91.636719 L 151.136719 109.78125 L 132.992188 109.78125 Z M 132.992188 91.636719 "/></g><path style=" stroke:none;fill-rule:nonzero;fill:#ffffff;fill-opacity:1;" d="M 28.398438 198.605469 L 63.691406 198.605469 L 63.691406 233.902344 L 28.398438 233.902344 Z M 28.398438 198.605469 "/><path style=" stroke:none;fill-rule:nonzero;fill:#ffffff;fill-opacity:1;" d="M 0 155.902344 L 23 155.902344 L 23 178.902344 L 0 178.902344 Z M 0 155.902344 "/><path style=" stroke:none;fill-rule:nonzero;fill:#ffffff;fill-opacity:1;" d="M 46.042969 116.839844 L 75.773438 116.839844 L 75.773438 146.570312 L 46.042969 146.570312 Z M 46.042969 116.839844 "/><path style="fill:none;stroke-width:4;stroke-linecap:butt;stroke-linejoin:miter;stroke:#ffffff;stroke-opacity:1;stroke-miterlimit:4;" d="M 0.00107107 2.001309 L 160.001082 2.001309 " transform="matrix(0.75,0,0,0.75,164.514822,70.842768)"/></g></svg>