<svg xmlns="http://www.w3.org/2000/svg" xmlns:xlink="http://www.w3.org/1999/xlink" width="500" zoomAndPan="magnify" viewBox="0 0 375 374.999991" height="500" preserveAspectRatio="xMidYMid meet" version="1.2"><defs><clipPath id="3d688cfbce"><path d="M 74 176 L 183 176 L 183 242.175781 L 74 242.175781 Z M 74 176 "/></clipPath><clipPath id="09fa3781d5"><path d="M 81 132.675781 L 183.324219 132.675781 L 183.324219 178 L 81 178 Z M 81 132.675781 "/></clipPath><clipPath id="07b926e5a6"><path d="M 44.574219 175 L 54 175 L 54 185 L 44.574219 185 Z M 44.574219 175 "/></clipPath></defs><g id="4d2c89eba2"><path style=" stroke:none;fill-rule:nonzero;fill:#5271ff;fill-opacity:1;" d="M 129.253906 167.332031 C 138.34375 167.332031 146.019531 173.371094 148.496094 181.65625 L 158.996094 181.65625 C 156.308594 167.679688 144.015625 157.117188 129.253906 157.117188 C 112.523438 157.117188 98.957031 170.679688 98.957031 187.414062 C 98.957031 204.140625 112.523438 217.703125 129.253906 217.703125 C 143.808594 217.703125 155.96875 207.433594 158.878906 193.746094 L 148.308594 193.746094 C 145.65625 201.734375 138.128906 207.488281 129.253906 207.488281 C 118.160156 207.488281 109.171875 198.5 109.171875 187.414062 C 109.171875 176.320312 118.160156 167.332031 129.253906 167.332031 Z M 129.253906 167.332031 "/><g clip-rule="nonzero" clip-path="url(#3d688cfbce)"><path style=" stroke:none;fill-rule:nonzero;fill:#5271ff;fill-opacity:1;" d="M 129.480469 223.671875 C 109.992188 223.671875 94.105469 208.316406 93.246094 189.054688 L 85.519531 189.054688 L 85.519531 176.449219 L 75.863281 176.449219 C 75.136719 179.996094 74.761719 183.664062 74.761719 187.414062 C 74.761719 187.964844 74.769531 188.519531 74.789062 189.0625 L 85.519531 189.0625 L 85.519531 202.078125 L 92.121094 202.078125 L 92.121094 208.675781 L 85.519531 208.675781 L 85.519531 202.078125 L 76.753906 202.078125 C 83.15625 225.167969 104.332031 242.121094 129.480469 242.121094 C 155.761719 242.121094 177.726562 223.570312 182.976562 198.855469 L 163.890625 198.855469 C 159.105469 213.277344 145.507812 223.671875 129.480469 223.671875 Z M 129.480469 223.671875 "/></g><g clip-rule="nonzero" clip-path="url(#09fa3781d5)"><path style=" stroke:none;fill-rule:nonzero;fill:#5271ff;fill-opacity:1;" d="M 129.480469 151.148438 C 145.890625 151.148438 159.757812 162.050781 164.234375 177.019531 L 183.191406 177.019531 C 178.339844 151.773438 156.136719 132.699219 129.480469 132.699219 C 108.472656 132.699219 90.234375 144.539062 81.066406 161.898438 L 85.519531 161.898438 L 85.519531 176.449219 L 94.898438 176.449219 C 99.539062 161.773438 113.265625 151.148438 129.480469 151.148438 Z M 93.730469 151.988281 L 100.441406 151.988281 L 100.441406 158.695312 L 93.730469 158.695312 Z M 93.730469 151.988281 "/></g><path style=" stroke:none;fill-rule:nonzero;fill:#5271ff;fill-opacity:1;" d="M 55.070312 191.53125 L 68.117188 191.53125 L 68.117188 204.578125 L 55.070312 204.578125 Z M 55.070312 191.53125 "/><g clip-rule="nonzero" clip-path="url(#07b926e5a6)"><path style=" stroke:none;fill-rule:nonzero;fill:#5271ff;fill-opacity:1;" d="M 44.574219 175.746094 L 53.074219 175.746094 L 53.074219 184.246094 L 44.574219 184.246094 Z M 44.574219 175.746094 "/></g><path style=" stroke:none;fill-rule:nonzero;fill:#5271ff;fill-opacity:1;" d="M 61.59375 161.304688 L 72.582031 161.304688 L 72.582031 172.292969 L 61.59375 172.292969 Z M 61.59375 161.304688 "/><g style="fill:#00bf63;fill-opacity:1;"><g transform="translate(198.269816, 194.37179)"><path style="stroke:none" d="M 14.8125 0.546875 C 12.113281 0.546875 9.726562 0.0078125 7.65625 -1.0625 C 5.582031 -2.132812 3.976562 -3.65625 2.84375 -5.625 C 1.71875 -7.601562 1.15625 -9.929688 1.15625 -12.609375 C 1.15625 -15.285156 1.71875 -17.613281 2.84375 -19.59375 C 3.976562 -21.582031 5.582031 -23.113281 7.65625 -24.1875 C 9.726562 -25.257812 12.113281 -25.796875 14.8125 -25.796875 C 18.300781 -25.796875 21.210938 -25 23.546875 -23.40625 L 23.546875 -18.203125 C 22.492188 -19.097656 21.285156 -19.742188 19.921875 -20.140625 C 18.554688 -20.535156 17.007812 -20.734375 15.28125 -20.734375 C 12.65625 -20.734375 10.578125 -20.003906 9.046875 -18.546875 C 7.515625 -17.085938 6.75 -15.109375 6.75 -12.609375 C 6.75 -10.078125 7.519531 -8.082031 9.0625 -6.625 C 10.601562 -5.164062 12.675781 -4.4375 15.28125 -4.4375 C 17.0625 -4.4375 18.640625 -4.644531 20.015625 -5.0625 C 21.390625 -5.488281 22.664062 -6.171875 23.84375 -7.109375 L 23.84375 -1.921875 C 21.625 -0.273438 18.613281 0.546875 14.8125 0.546875 Z M 14.8125 0.546875 "/></g></g><g style="fill:#00bf63;fill-opacity:1;"><g transform="translate(223.299028, 194.37179)"><path style="stroke:none" d="M 1.875 -25.25 L 7.375 -25.25 L 7.375 -15.140625 L 18.390625 -15.140625 L 18.390625 -25.25 L 23.875 -25.25 L 23.875 0 L 18.390625 0 L 18.390625 -10.578125 L 7.375 -10.578125 L 7.375 0 L 1.875 0 Z M 1.875 -25.25 "/></g></g><g style="fill:#00bf63;fill-opacity:1;"><g transform="translate(249.05059, 194.37179)"><path style="stroke:none" d="M 1.875 -25.25 L 12.828125 -25.25 C 15.691406 -25.25 17.921875 -24.53125 19.515625 -23.09375 C 21.117188 -21.664062 21.921875 -19.601562 21.921875 -16.90625 C 21.921875 -15.03125 21.488281 -13.4375 20.625 -12.125 C 19.757812 -10.8125 18.53125 -9.851562 16.9375 -9.25 L 21.75 0 L 16.109375 0 L 11.671875 -8.5625 L 7.375 -8.5625 L 7.375 0 L 1.875 0 Z M 11.84375 -13.15625 C 13.238281 -13.15625 14.335938 -13.453125 15.140625 -14.046875 C 15.953125 -14.648438 16.359375 -15.601562 16.359375 -16.90625 C 16.359375 -18.28125 15.960938 -19.25 15.171875 -19.8125 C 14.378906 -20.375 13.269531 -20.65625 11.84375 -20.65625 L 7.375 -20.65625 L 7.375 -13.15625 Z M 11.84375 -13.15625 "/></g></g><g style="fill:#00bf63;fill-opacity:1;"><g transform="translate(272.165594, 194.37179)"><path style="stroke:none" d="M 14.671875 0.546875 C 12.140625 0.546875 9.84375 -0.00390625 7.78125 -1.109375 C 5.726562 -2.222656 4.109375 -3.773438 2.921875 -5.765625 C 1.742188 -7.753906 1.15625 -10.035156 1.15625 -12.609375 C 1.15625 -15.179688 1.742188 -17.46875 2.921875 -19.46875 C 4.109375 -21.46875 5.726562 -23.019531 7.78125 -24.125 C 9.84375 -25.238281 12.140625 -25.796875 14.671875 -25.796875 C 17.191406 -25.796875 19.46875 -25.238281 21.5 -24.125 C 23.539062 -23.019531 25.148438 -21.46875 26.328125 -19.46875 C 27.515625 -17.46875 28.109375 -15.179688 28.109375 -12.609375 C 28.109375 -10.035156 27.515625 -7.753906 26.328125 -5.765625 C 25.148438 -3.773438 23.539062 -2.222656 21.5 -1.109375 C 19.46875 -0.00390625 17.191406 0.546875 14.671875 0.546875 Z M 14.671875 -4.515625 C 16.109375 -4.515625 17.421875 -4.84375 18.609375 -5.5 C 19.804688 -6.164062 20.753906 -7.109375 21.453125 -8.328125 C 22.148438 -9.546875 22.5 -10.972656 22.5 -12.609375 C 22.5 -14.222656 22.15625 -15.632812 21.46875 -16.84375 C 20.789062 -18.0625 19.851562 -19 18.65625 -19.65625 C 17.46875 -20.320312 16.140625 -20.65625 14.671875 -20.65625 C 13.171875 -20.65625 11.820312 -20.320312 10.625 -19.65625 C 9.4375 -19 8.492188 -18.0625 7.796875 -16.84375 C 7.097656 -15.632812 6.75 -14.222656 6.75 -12.609375 C 6.75 -10.972656 7.097656 -9.546875 7.796875 -8.328125 C 8.492188 -7.109375 9.445312 -6.164062 10.65625 -5.5 C 11.863281 -4.84375 13.203125 -4.515625 14.671875 -4.515625 Z M 14.671875 -4.515625 "/></g></g><g style="fill:#00bf63;fill-opacity:1;"><g transform="translate(301.420525, 194.37179)"><path style="stroke:none" d="M 1.875 -25.25 L 7.21875 -25.25 L 17.78125 -8.921875 L 17.78125 -25.25 L 23.265625 -25.25 L 23.265625 0 L 17.953125 0 L 7.375 -16.328125 L 7.375 0 L 1.875 0 Z M 1.875 -25.25 "/></g></g><g style="fill:#00bf63;fill-opacity:1;"><g transform="translate(326.558089, 194.37179)"><path style="stroke:none" d="M 14.671875 0.546875 C 12.140625 0.546875 9.84375 -0.00390625 7.78125 -1.109375 C 5.726562 -2.222656 4.109375 -3.773438 2.921875 -5.765625 C 1.742188 -7.753906 1.15625 -10.035156 1.15625 -12.609375 C 1.15625 -15.179688 1.742188 -17.46875 2.921875 -19.46875 C 4.109375 -21.46875 5.726562 -23.019531 7.78125 -24.125 C 9.84375 -25.238281 12.140625 -25.796875 14.671875 -25.796875 C 17.191406 -25.796875 19.46875 -25.238281 21.5 -24.125 C 23.539062 -23.019531 25.148438 -21.46875 26.328125 -19.46875 C 27.515625 -17.46875 28.109375 -15.179688 28.109375 -12.609375 C 28.109375 -10.035156 27.515625 -7.753906 26.328125 -5.765625 C 25.148438 -3.773438 23.539062 -2.222656 21.5 -1.109375 C 19.46875 -0.00390625 17.191406 0.546875 14.671875 0.546875 Z M 14.671875 -4.515625 C 16.109375 -4.515625 17.421875 -4.84375 18.609375 -5.5 C 19.804688 -6.164062 20.753906 -7.109375 21.453125 -8.328125 C 22.148438 -9.546875 22.5 -10.972656 22.5 -12.609375 C 22.5 -14.222656 22.15625 -15.632812 21.46875 -16.84375 C 20.789062 -18.0625 19.851562 -19 18.65625 -19.65625 C 17.46875 -20.320312 16.140625 -20.65625 14.671875 -20.65625 C 13.171875 -20.65625 11.820312 -20.320312 10.625 -19.65625 C 9.4375 -19 8.492188 -18.0625 7.796875 -16.84375 C 7.097656 -15.632812 6.75 -14.222656 6.75 -12.609375 C 6.75 -10.972656 7.097656 -9.546875 7.796875 -8.328125 C 8.492188 -7.109375 9.445312 -6.164062 10.65625 -5.5 C 11.863281 -4.84375 13.203125 -4.515625 14.671875 -4.515625 Z M 14.671875 -4.515625 "/></g></g><g style="fill:#00bf63;fill-opacity:1;"><g transform="translate(198.269816, 218.728829)"><path style="stroke:none" d="M 2.671875 0 C 2.285156 0 2.09375 -0.191406 2.09375 -0.578125 L 2.09375 -13.90625 C 2.09375 -14.289062 2.285156 -14.484375 2.671875 -14.484375 L 10.796875 -14.484375 C 11.191406 -14.484375 11.390625 -14.289062 11.390625 -13.90625 C 11.390625 -13.507812 11.191406 -13.3125 10.796875 -13.3125 L 3.265625 -13.3125 L 3.265625 -7.921875 L 8.421875 -7.921875 C 8.804688 -7.921875 9 -7.722656 9 -7.328125 C 9 -6.941406 8.804688 -6.75 8.421875 -6.75 L 3.265625 -6.75 L 3.265625 -0.578125 C 3.265625 -0.191406 3.066406 0 2.671875 0 Z M 2.671875 0 "/></g></g><g style="fill:#00bf63;fill-opacity:1;"><g transform="translate(216.655458, 218.728829)"><path style="stroke:none" d="M 6.484375 0 C 4.847656 0 3.65625 -0.367188 2.90625 -1.109375 C 2.164062 -1.859375 1.796875 -3.050781 1.796875 -4.6875 L 1.796875 -9.8125 C 1.796875 -11.445312 2.171875 -12.640625 2.921875 -13.390625 C 3.671875 -14.140625 4.847656 -14.503906 6.453125 -14.484375 L 9.1875 -14.484375 C 10.8125 -14.484375 11.992188 -14.109375 12.734375 -13.359375 C 13.484375 -12.609375 13.859375 -11.425781 13.859375 -9.8125 L 13.859375 -4.6875 C 13.859375 -3.050781 13.484375 -1.859375 12.734375 -1.109375 C 11.992188 -0.367188 10.8125 0 9.1875 0 Z M 9.1875 -1.171875 C 10.46875 -1.171875 11.367188 -1.429688 11.890625 -1.953125 C 12.421875 -2.484375 12.6875 -3.394531 12.6875 -4.6875 L 12.6875 -9.8125 C 12.6875 -11.101562 12.421875 -12.007812 11.890625 -12.53125 C 11.367188 -13.050781 10.46875 -13.3125 9.1875 -13.3125 L 6.453125 -13.3125 C 5.585938 -13.332031 4.898438 -13.226562 4.390625 -13 C 3.890625 -12.78125 3.523438 -12.414062 3.296875 -11.90625 C 3.078125 -11.394531 2.96875 -10.695312 2.96875 -9.8125 L 2.96875 -4.6875 C 2.96875 -3.394531 3.226562 -2.484375 3.75 -1.953125 C 4.28125 -1.429688 5.191406 -1.171875 6.484375 -1.171875 Z M 9.1875 -1.171875 "/></g></g><g style="fill:#00bf63;fill-opacity:1;"><g transform="translate(239.316086, 218.728829)"><path style="stroke:none" d="M 12.109375 -0.765625 C 12.179688 -0.640625 12.21875 -0.523438 12.21875 -0.421875 C 12.21875 -0.242188 12.113281 -0.0976562 11.90625 0.015625 C 11.78125 0.0976562 11.664062 0.140625 11.5625 0.140625 C 11.363281 0.140625 11.210938 0.0390625 11.109375 -0.15625 L 7.40625 -6.03125 L 3.265625 -6.03125 L 3.265625 -0.578125 C 3.265625 -0.191406 3.066406 0 2.671875 0 C 2.285156 0 2.09375 -0.191406 2.09375 -0.578125 L 2.09375 -13.90625 C 2.09375 -14.289062 2.285156 -14.484375 2.671875 -14.484375 L 7.9375 -14.484375 C 9.21875 -14.484375 10.1875 -14.15625 10.84375 -13.5 C 11.5 -12.84375 11.828125 -11.875 11.828125 -10.59375 L 11.828125 -9.921875 C 11.828125 -8.785156 11.566406 -7.894531 11.046875 -7.25 C 10.535156 -6.601562 9.78125 -6.210938 8.78125 -6.078125 Z M 3.265625 -7.203125 L 7.9375 -7.203125 C 8.894531 -7.203125 9.585938 -7.414062 10.015625 -7.84375 C 10.453125 -8.269531 10.671875 -8.960938 10.671875 -9.921875 L 10.671875 -10.59375 C 10.671875 -11.539062 10.453125 -12.226562 10.015625 -12.65625 C 9.585938 -13.09375 8.894531 -13.3125 7.9375 -13.3125 L 3.265625 -13.3125 Z M 3.265625 -7.203125 "/></g></g><g style="fill:#00bf63;fill-opacity:1;"><g transform="translate(259.636717, 218.728829)"><path style="stroke:none" d="M 6.484375 0 C 4.859375 0 3.671875 -0.375 2.921875 -1.125 C 2.171875 -1.875 1.796875 -3.0625 1.796875 -4.6875 L 1.796875 -9.8125 C 1.796875 -11.445312 2.164062 -12.632812 2.90625 -13.375 C 3.65625 -14.113281 4.835938 -14.484375 6.453125 -14.484375 L 9.1875 -14.484375 C 10.5625 -14.484375 11.585938 -14.191406 12.265625 -13.609375 C 12.941406 -13.035156 13.316406 -12.113281 13.390625 -10.84375 C 13.421875 -10.457031 13.222656 -10.265625 12.796875 -10.265625 C 12.441406 -10.265625 12.25 -10.457031 12.21875 -10.84375 C 12.15625 -11.757812 11.898438 -12.398438 11.453125 -12.765625 C 11.003906 -13.128906 10.25 -13.3125 9.1875 -13.3125 L 6.453125 -13.3125 C 5.585938 -13.3125 4.898438 -13.195312 4.390625 -12.96875 C 3.890625 -12.75 3.523438 -12.390625 3.296875 -11.890625 C 3.078125 -11.390625 2.96875 -10.695312 2.96875 -9.8125 L 2.96875 -4.6875 C 2.96875 -3.800781 3.078125 -3.101562 3.296875 -2.59375 C 3.523438 -2.09375 3.890625 -1.726562 4.390625 -1.5 C 4.898438 -1.28125 5.597656 -1.171875 6.484375 -1.171875 L 9.1875 -1.171875 C 9.957031 -1.171875 10.5625 -1.265625 11 -1.453125 C 11.445312 -1.640625 11.765625 -1.953125 11.953125 -2.390625 C 12.140625 -2.835938 12.234375 -3.453125 12.234375 -4.234375 L 12.234375 -5.640625 L 9.765625 -5.671875 C 9.378906 -5.671875 9.1875 -5.863281 9.1875 -6.25 C 9.1875 -6.644531 9.378906 -6.84375 9.765625 -6.84375 L 12.828125 -6.8125 C 13.210938 -6.8125 13.40625 -6.617188 13.40625 -6.234375 L 13.40625 -4.234375 C 13.40625 -2.742188 13.070312 -1.664062 12.40625 -1 C 11.738281 -0.332031 10.664062 0 9.1875 0 Z M 6.484375 0 "/></g></g><g style="fill:#00bf63;fill-opacity:1;"><g transform="translate(281.622349, 218.728829)"><path style="stroke:none" d="M 11.109375 -1.171875 C 11.503906 -1.171875 11.703125 -0.972656 11.703125 -0.578125 C 11.703125 -0.191406 11.503906 0 11.109375 0 L 2.671875 0 C 2.285156 0 2.09375 -0.191406 2.09375 -0.578125 L 2.09375 -13.90625 C 2.09375 -14.289062 2.285156 -14.484375 2.671875 -14.484375 L 11.109375 -14.484375 C 11.503906 -14.484375 11.703125 -14.289062 11.703125 -13.90625 C 11.703125 -13.507812 11.503906 -13.3125 11.109375 -13.3125 L 3.265625 -13.3125 L 3.265625 -7.921875 L 8.453125 -7.921875 C 8.847656 -7.921875 9.046875 -7.722656 9.046875 -7.328125 C 9.046875 -6.941406 8.847656 -6.75 8.453125 -6.75 L 3.265625 -6.75 L 3.265625 -1.171875 Z M 11.109375 -1.171875 "/></g></g></g></svg>